# xmcd
#
# Track frame offsets: 
#        150
#        15441
#        30652
#        45278
#        63316
#        81795
#        98439
#        113687
#        127603
#        144576
#        159546
#        177008
#        193956
#        212294
#
# Disc length: 3074 seconds
#
# Revision: 4
# Processed by: cddbd v1.5.2PL0 Copyright (c) Steve Scherf et al.
# Submitted via: ExactAudioCopyFreeDBPlugin 1.0
#
DISCID=a00c000e
DTITLE=Shy'm - Reflets
DYEAR=2008
DGENRE=R&B
TTITLE0=La Première Fois
TTITLE1=Step Back Feat. Odessa Thornhill
TTITLE2=Tout Est Dit
TTITLE3=Faut Recommencer
TTITLE4=Garde Tout
TTITLE5=Ma Peur
TTITLE6=Si Tu Savais
TTITLE7=Je Prends Sur Moi
TTITLE8=Nulle Part Ailleurs
TTITLE9=L'Unique
TTITLE10=Pas Pour Moi
TTITLE11=A L'Abri Feat. K-Maro
TTITLE12=On N'A Pas Tout Notre Temps
TTITLE13=La Première Fois (Remix)
EXTD=YEAR: 2008
EXTT0=
EXTT1=
EXTT2=
EXTT3=
EXTT4=
EXTT5=
EXTT6=
EXTT7=
EXTT8=
EXTT9=
EXTT10=
EXTT11=
EXTT12=
EXTT13=
PLAYORDER=
